<svg xmlns="http://www.w3.org/2000/svg" viewBox="0 0 192 192">
  <rect width="192" height="192" rx="40" fill="#F59E0B"/>
  <!-- Body -->
  <ellipse cx="95" cy="115" rx="38" ry="30" fill="white"/>
  <!-- Head -->
  <circle cx="122" cy="78" r="24" fill="white"/>
  <!-- Beak -->
  <polygon points="143,76 158,72 143,83" fill="#F59E0B"/>
  <!-- Eye -->
  <circle cx="130" cy="72" r="5" fill="#1C1917"/>
  <circle cx="131" cy="71" r="1.5" fill="white"/>
  <!-- Wing -->
  <path d="M57,108 Q68,80 88,95 Q78,112 57,108Z" fill="white" opacity="0.85"/>
  <!-- Tail feathers -->
  <path d="M57,116 Q35,122 30,142 Q52,128 70,134" fill="white" opacity="0.85"/>
  <!-- Feet -->
  <line x1="85" y1="143" x2="78" y2="158" stroke="#F59E0B" stroke-width="3" stroke-linecap="round"/>
  <line x1="105" y1="143" x2="98" y2="158" stroke="#F59E0B" stroke-width="3" stroke-linecap="round"/>
  <line x1="78" y1="158" x2="68" y2="162" stroke="#F59E0B" stroke-width="3" stroke-linecap="round"/>
  <line x1="78" y1="158" x2="82" y2="164" stroke="#F59E0B" stroke-width="3" stroke-linecap="round"/>
  <line x1="98" y1="158" x2="88" y2="162" stroke="#F59E0B" stroke-width="3" stroke-linecap="round"/>
  <line x1="98" y1="158" x2="102" y2="164" stroke="#F59E0B" stroke-width="3" stroke-linecap="round"/>
</svg>
