<svg xmlns="http://www.w3.org/2000/svg" viewBox="0 0 512 512">
  <rect width="512" height="512" rx="96" fill="#F59E0B"/>
  <!-- Body -->
  <ellipse cx="252" cy="305" rx="100" ry="80" fill="white"/>
  <!-- Head -->
  <circle cx="325" cy="205" r="64" fill="white"/>
  <!-- Beak -->
  <polygon points="382,203 425,192 382,218" fill="#F59E0B"/>
  <!-- Eye -->
  <circle cx="345" cy="192" r="13" fill="#1C1917"/>
  <circle cx="348" cy="189" r="4" fill="white"/>
  <!-- Wing -->
  <path d="M152,288 Q180,215 236,254 Q208,300 152,288Z" fill="white" opacity="0.85"/>
  <!-- Tail feathers -->
  <path d="M152,308 Q92,328 80,378 Q138,340 186,356" fill="white" opacity="0.85"/>
  <!-- Feet -->
  <line x1="225" y1="382" x2="208" y2="420" stroke="#F59E0B" stroke-width="8" stroke-linecap="round"/>
  <line x1="278" y1="382" x2="261" y2="420" stroke="#F59E0B" stroke-width="8" stroke-linecap="round"/>
  <line x1="208" y1="420" x2="182" y2="430" stroke="#F59E0B" stroke-width="8" stroke-linecap="round"/>
  <line x1="208" y1="420" x2="218" y2="434" stroke="#F59E0B" stroke-width="8" stroke-linecap="round"/>
  <line x1="261" y1="420" x2="235" y2="430" stroke="#F59E0B" stroke-width="8" stroke-linecap="round"/>
  <line x1="261" y1="420" x2="271" y2="434" stroke="#F59E0B" stroke-width="8" stroke-linecap="round"/>
</svg>
